@startuml

left to right direction
actor 消费者
actor 销售员
rectangle 买单 {
消费者 -- (买单)
(买单) .> (付款) : include
(帮助) .> (买单) : extends
(买单) -- 销售员
}

@enduml
use case
TIPS：

用例图
用例图是指由参与者（Actor）、用例（Use Case）以及它们之间的关系构成的
用于描述系统功能的静态视图
百度百科上有简易的入门资料，其中用例之间的关系 (include, extends) 是关键
使用 actor 来定义参与者
使用括号 (xxx) 来表示用例，用例用椭圆形表达
使用不同的线条表达不同的关系。包括参与者与用例的关系，用例与用例的关系

作者：kamidox
链接：http://www.jianshu.com/p/e92a52770832
來源：简书
著作权归作者所有。商业转载请联系作者获得授权，非商业转载请注明出处。

@startuml

title 流程图

(*) --> "步骤1处理"
--> "步骤2处理"
if "条件1判断" then
    ->[true] "条件1成立时执行的动作"
    if "分支条件2判断" then
        ->[no] "条件2不成立时执行的动作"
        -> === 中间流程汇总点1 ===
    else
        -->[yes] === 中间流程汇总点1 ===
    endif
    if "分支条件3判断" then
        -->[yes] "分支条件3成立时执行的动作"
        --> "Page.onRender ()" as render
        --> === REDIRECT_CHECK ===
    else
        -->[no] "分支条件3不成立时的动作"
        --> render
    endif
else
    -->[false] === REDIRECT_CHECK ===
endif

if "条件4判断" then
    ->[yes] "条件4成立时执行的动作"
    --> "流程最后结点"
else
endif
--> "流程最后结点"
-->(*)

@enduml

上面的流程图写的时候还是挺直观的，但画出来的图片渲染效果不好，
对逻辑的显示不清楚。由于这个原因 PlantUML 实现了另外版本的流程图脚本。

下面是 PlantUML 支持的新版本的流程图脚本，从使用角度来讲，更直观，
画出来的图片也更漂亮，推荐使用。

@startuml

start
:"步骤1处理";
:"步骤2处理";
if ("条件1判断") then (true)
    :条件1成立时执行的动作;
    if ("分支条件2判断") then (no)
        :"条件2不成立时执行的动作";
    else
        if ("条件3判断") then (yes)
            :"条件3成立时的动作";
        else (no)
            :"条件3不成立时的动作";
        endif
    endif
    :"顺序步骤3处理";
endif

if ("条件4判断") then (yes)
:"条件4成立的动作";
else
    if ("条件5判断") then (yes)
        :"条件5成立时的动作";
    else (no)
        :"条件5不成立时的动作";
    endif
endif
stop
@enduml

TIPS：

使用 start 来表示流程开始，使用 stop 来表示流程结束
顺序流程使用冒号和分号 :xxx; 来表示
条件语句使用 if ("condition 1") then (true/yes/false/no) 来表示
条件语句可以嵌套
组件图

我们经常使用组件图来画部署视图，或者用来画系统的拓扑结构图。

@startuml

package "组件1" {
    ["组件1.1"] - ["组件1.2"]
    ["组件1.2"] -> ["组件2.1"]
}

node "组件2" {
    ["组件2.1"] - ["组件2.2"]
    ["组件2.2"] --> [负载均衡服务器]
}

cloud {
    [负载均衡服务器] -> [逻辑服务器1]
    [负载均衡服务器] -> [逻辑服务器2]
    [负载均衡服务器] -> [逻辑服务器3]
}

database "MySql" {
    folder "This is my folder" {
        [Folder 3]
    }

    frame "Foo" {
        [Frame 4]
    }
}

[逻辑服务器1] --> [Folder 3]
[逻辑服务器2] --> [Frame 4]
[逻辑服务器3] --> [Frame 4]

@enduml

TIPS:

使用方括号 [xxx] 来表示组件
可以把几个组件合并成一个包，可以使用的关键字为 package, node, folder, frame, cloud, database。不同的关键字图形不一样。
可以在包内部用不同的箭头表达同一个包的组件之间的关系
可以在包内部直接表达到另外一个包内部的组件的交互关系
可以在流程图外部直接表达包之间或包的组件之间的交互关系
状态图

我们一般使用状态图来画状态机。

@startuml

scale 640 width

[*] --> NotShooting

state NotShooting {
    [*] --> Idle
    Idle --> Processing: SignalEvent
    Processing --> Idle: Finish
    Idle --> Configuring : EvConfig
    Configuring --> Idle : EvConfig
}

state Configuring {
    [*] --> NewValueSelection
    NewValueSelection --> NewValuePreview : EvNewValue
    NewValuePreview --> NewValueSelection : EvNewValueRejected
    NewValuePreview --> NewValueSelection : EvNewValueSaved
    state NewValuePreview {
        State1 -> State2
    }
}

@enduml

TIPS:

使用 [*] 来表示状态的起点
使用 state 来定义子状态图
状态图可以嵌套
使用 scale 命令来指定生成的图片的尺寸
总结

@startuml

title class-diagram.png
scale 1.5
/'组合关系(composition)'/
class Human {
    - Head mHead;
    - Heart mHeart;
    ..
    - CreditCard mCard;
    --
    + void travel(Vehicle vehicle);
}

Human *-up- Head : contains >
Human *-up- Heart : contains >

/'聚合关系(aggregation)'/
Human o-left- CreditCard : owns >

/'依赖关系(dependency)'/
Human .down.> Vehicle : dependent

/'关联关系(association'/
Human -down-> Company : associate

/'继承关系(extention)'/
interface IProgram {
    + void program();
}
class Programmer {
    + void program();
}
Programmer -left-|> Human : extend
Programmer .up.|> IProgram : implement
@enduml